<svg id="页面-1" xmlns="http://www.w3.org/2000/svg" xmlns:xlink="http://www.w3.org/1999/xlink" width="16" height="16" viewBox="0 0 16 16">
  <defs>
    <linearGradient id="linear-gradient" x1="0.5" x2="0.5" y2="1" gradientUnits="objectBoundingBox">
      <stop offset="0" stop-color="#54adff"/>
      <stop offset="1" stop-color="#1786ec"/>
    </linearGradient>
  </defs>
  <g id="编组">
    <rect id="矩形_1051" width="16" height="16" fill="none"/>
    <g id="组_8534" transform="translate(1.74 1.743)">
      <path id="形状结合" d="M11.05,0a1.471,1.471,0,0,1,1.473,1.47h0V11.788a1.469,1.469,0,0,1-1.473,1.469H1.473A1.471,1.471,0,0,1,0,11.788H0V1.469A1.469,1.469,0,0,1,1.473,0H11.05ZM9.821,8.9H2.576a.791.791,0,0,0,0,1.581H9.821a.791.791,0,0,0,0-1.581ZM9.806,5.434H2.59a.8.8,0,1,0,0,1.61H9.806a.8.8,0,1,0,0-1.61ZM3.029,1.921a1.105,1.105,0,1,0,1.1,1.105,1.1,1.1,0,0,0-1.1-1.105Z" fill="url(#linear-gradient)"/>
    </g>
  </g>
</svg>
