<svg xmlns="http://www.w3.org/2000/svg" xmlns:xlink="http://www.w3.org/1999/xlink" width="16" height="16" viewBox="0 0 16 16">
  <defs>
    <linearGradient id="linear-gradient" x1="0.5" x2="0.5" y2="1" gradientUnits="objectBoundingBox">
      <stop offset="0" stop-color="#54adff"/>
      <stop offset="1" stop-color="#1786ec"/>
    </linearGradient>
  </defs>
  <g id="组_8547" data-name="组 8547" transform="translate(-333 -147)">
    <g id="组_8535" data-name="组 8535" transform="translate(-6 -83)">
      <rect id="矩形_1051" data-name="矩形 1051" width="16" height="16" transform="translate(339 230)" fill="none"/>
    </g>
    <path id="路径_10034" data-name="路径 10034" d="M1.75,0h.875V1.75a.875.875,0,0,0,.875.875h7a.875.875,0,0,0,.875-.875V0h.875A1.75,1.75,0,0,1,14,1.75v10.5A1.75,1.75,0,0,1,12.25,14H1.75A1.75,1.75,0,0,1,0,12.25V1.75A1.75,1.75,0,0,1,1.75,0Zm8.766,4.864L6.36,9.02l-2.4-2.805-1,.854L6.286,10.95l5.157-5.157ZM10.5,0V.875a.875.875,0,0,1-.875.875H4.375A.875.875,0,0,1,3.5.875V0Z" transform="translate(334 148)" fill="url(#linear-gradient)"/>
  </g>
</svg>
